<?xml version="1.0" standalone="no"?>
<!DOCTYPE svg PUBLIC "-//W3C//DTD SVG 20010904//EN"
 "http://www.w3.org/TR/2001/REC-SVG-20010904/DTD/svg10.dtd">
<svg version="1.0" xmlns="http://www.w3.org/2000/svg"
 width="90px" height="25px" viewBox="0 0 317.000000 369.000000"
 preserveAspectRatio="xMidYMid meet">
<metadata>
Created by potrace 1.15, written by Peter Selinger 2001-2017
</metadata>
<g transform="translate(0.000000,369.000000) scale(0.100000,-0.100000)"
fill="#000000" stroke="none">
<path d="M1512 3683 c-24 -5 -34 -23 -47 -80 l-7 -33 54 1 c86 2 113 11 116
39 2 13 10 33 18 44 8 11 14 24 14 28 0 8 -107 9 -148 1z"/>
<path d="M1347 3666 c-64 -12 -72 -20 -80 -84 l-5 -44 31 6 c18 3 51 8 74 12
48 7 58 17 65 59 3 17 9 38 13 48 9 20 -9 21 -98 3z"/>
<path d="M1675 3631 c-29 -59 -31 -57 67 -65 l66 -6 26 47 c15 25 23 50 19 54
-5 4 -40 10 -80 14 l-72 7 -26 -51z"/>
<path d="M1185 3633 c-105 -30 -105 -29 -105 -89 0 -30 3 -54 6 -54 3 0 36 9
74 21 l67 20 6 57 c3 31 5 57 4 58 -1 1 -24 -5 -52 -13z"/>
<path d="M1877 3611 c-15 -22 -27 -45 -27 -50 0 -10 43 -24 111 -35 32 -6 38
-3 67 33 18 22 32 44 32 50 0 5 -26 15 -57 21 -32 6 -67 14 -79 16 -16 4 -27
-4 -47 -35z"/>
<path d="M961 3555 l-74 -36 6 -51 c4 -28 9 -53 12 -56 2 -3 35 10 72 29 l67
34 1 58 c1 31 -1 57 -5 57 -3 0 -39 -16 -79 -35z"/>
<path d="M2082 3568 c-9 -11 -25 -29 -34 -39 -20 -21 -21 -21 66 -53 l67 -24
40 40 c21 22 39 41 39 43 0 6 -130 55 -145 55 -8 0 -23 -10 -33 -22z"/>
<path d="M2257 3476 c-20 -18 -37 -36 -37 -39 0 -6 95 -60 122 -70 12 -4 29 4
50 23 18 17 36 30 40 30 5 0 8 4 8 9 0 9 -126 81 -140 81 -3 0 -23 -15 -43
-34z"/>
<path d="M779 3461 c-35 -21 -65 -46 -67 -54 -4 -20 17 -97 26 -97 4 0 32 15
62 33 l55 33 0 62 c0 34 -3 62 -6 62 -3 0 -34 -17 -70 -39z"/>
<path d="M609 3344 c-69 -59 -73 -67 -54 -103 8 -17 15 -37 15 -46 0 -40 55
10 69 63 8 27 19 43 32 47 15 5 19 13 15 28 -3 12 -6 30 -6 40 0 26 -11 21
-71 -29z"/>
<path d="M1350 3375 c-79 -14 -193 -50 -270 -86 -65 -31 -170 -92 -170 -100 0
-3 37 -37 82 -75 46 -38 92 -78 104 -90 71 -69 37 -64 452 -64 l375 0 41 34
c61 50 165 128 219 165 26 17 47 35 47 39 0 4 -15 16 -33 26 -127 75 -298 138
-420 155 -103 15 -333 12 -427 -4z"/>
<path d="M2605 3258 c-60 -33 -60 -37 -3 -95 55 -56 68 -62 87 -39 7 8 26 18
42 21 16 4 29 10 29 14 0 13 -108 111 -122 111 -7 0 -22 -6 -33 -12z"/>
<path d="M452 3201 c-28 -33 -52 -65 -52 -71 0 -16 39 -90 48 -90 7 0 39 33
86 88 19 21 19 24 3 58 -9 19 -17 44 -17 54 0 31 -12 24 -68 -39z"/>
<path d="M2730 3105 c-19 -7 -36 -17 -37 -22 -2 -6 17 -36 43 -67 38 -47 51
-56 68 -51 11 3 36 8 54 12 17 3 32 8 32 10 0 6 -54 82 -79 111 -21 24 -30 25
-81 7z"/>
<path d="M316 3038 c-46 -62 -56 -91 -35 -104 6 -3 19 -20 29 -36 l18 -30 18
27 c11 14 31 42 47 62 32 43 33 52 7 86 -11 14 -20 30 -20 35 0 30 -23 16 -64
-40z"/>
<path d="M2263 2944 l-93 -46 29 -42 c16 -23 35 -47 43 -53 15 -12 100 -34
106 -28 17 17 30 215 15 215 -5 -1 -50 -21 -100 -46z"/>
<path d="M2850 2938 c-19 -5 -37 -11 -38 -13 -5 -4 46 -94 66 -118 13 -14 25
-16 66 -11 28 4 53 8 54 10 2 1 -15 34 -38 73 -43 75 -47 77 -110 59z"/>
<path d="M233 2917 c-5 -6 -23 -40 -41 -74 l-31 -62 32 -40 c18 -22 37 -40 42
-40 6 -1 26 31 44 69 l34 70 -26 28 c-15 16 -27 33 -27 39 0 18 -17 24 -27 10z"/>
<path d="M849 2902 c-4 -32 5 -101 16 -117 41 -58 43 -59 70 -45 32 17 105 79
105 89 0 17 -189 88 -191 73z"/>
<path d="M2530 2888 c0 -13 -11 -77 -24 -142 -24 -118 -25 -120 -6 -156 30
-60 68 -204 80 -308 24 -204 -27 -412 -142 -580 l-29 -43 -87 3 -87 3 -5 112
-5 113 -74 50 c-41 27 -78 50 -82 50 -5 0 -9 -10 -9 -22 0 -13 -7 -84 -15
-158 -9 -74 -24 -215 -35 -312 -34 -315 -78 -556 -109 -596 -25 -34 -111 -45
-301 -39 -186 5 -221 14 -244 60 -28 61 -94 479 -136 872 -6 55 -14 103 -18
107 -4 4 -26 4 -49 1 l-43 -6 0 -228 c0 -126 -4 -229 -8 -229 -15 0 -375 372
-441 455 -35 44 -71 96 -79 115 -35 83 13 268 118 459 l51 92 -29 37 c-45 56
-78 129 -98 215 -11 42 -22 77 -25 77 -11 0 -88 -124 -129 -208 -174 -354
-174 -813 -1 -1175 185 -386 537 -648 950 -708 114 -16 321 -6 431 21 96 24
247 82 302 116 21 13 40 24 43 24 13 0 163 115 213 164 297 284 440 675 403
1098 -21 236 -89 426 -226 633 -40 59 -55 68 -55 33z"/>
<path d="M2948 2763 c-21 -2 -38 -7 -38 -11 0 -4 12 -37 27 -74 l28 -66 55 -4
c30 -2 57 -3 59 -1 5 3 -48 135 -61 151 -6 6 -16 11 -22 10 -6 -1 -28 -3 -48
-5z"/>
<path d="M125 2703 c-9 -21 -21 -57 -28 -81 -11 -43 -11 -43 26 -78 20 -19 41
-33 45 -30 5 3 19 36 32 75 l24 69 -42 42 -41 41 -16 -38z"/>
<path d="M2986 2548 c4 -13 13 -45 20 -72 7 -27 17 -52 21 -56 4 -4 31 -10 60
-14 l51 -6 -18 70 c-24 92 -31 100 -92 100 -47 0 -49 -1 -42 -22z"/>
<path d="M48 2462 c-8 -42 -12 -82 -9 -89 3 -6 23 -23 43 -37 45 -30 50 -25
67 69 l12 60 -33 28 c-64 55 -64 55 -80 -31z"/>
<path d="M3035 2370 c-5 -9 16 -143 24 -152 4 -4 28 -14 55 -22 l48 -15 -7 72
c-3 39 -10 79 -15 87 -9 17 -97 42 -105 30z"/>
<path d="M1965 2341 c-3 -5 -19 -12 -35 -16 -17 -4 -28 -10 -25 -15 3 -5 -1
-12 -8 -17 -19 -11 -37 -47 -37 -73 0 -30 28 -68 64 -87 42 -22 151 -22 193 0
99 52 75 158 -43 188 -38 10 -44 14 -28 20 13 5 4 8 -28 8 -26 1 -49 -3 -53
-8z"/>
<path d="M16 2293 c-3 -21 -6 -61 -6 -89 l0 -51 49 -21 48 -20 7 52 c12 102 9
114 -28 130 -18 8 -37 19 -40 25 -13 20 -23 11 -30 -26z"/>
<path d="M1115 2297 c-27 -14 -59 -32 -70 -42 -11 -9 -14 -13 -7 -10 10 5 12
-1 7 -27 -8 -46 12 -79 65 -105 87 -44 200 -20 242 52 17 29 17 33 0 65 -11
24 -33 43 -64 58 -70 35 -114 37 -173 9z"/>
<path d="M3060 2094 c0 -72 3 -85 18 -90 9 -3 29 -12 44 -20 14 -8 29 -14 32
-14 4 0 5 39 4 86 l-3 86 -47 18 -48 18 0 -84z"/>
<path d="M4 2064 c3 -26 6 -64 6 -85 0 -37 2 -39 48 -53 26 -7 51 -10 55 -6 4
4 5 41 1 83 l-7 76 -48 15 c-26 9 -51 16 -55 16 -4 0 -4 -21 0 -46z"/>
<path d="M3055 1967 c-4 -16 -25 -128 -25 -138 0 -4 22 -23 48 -42 l48 -34 12
69 c7 37 12 77 12 87 0 23 -89 77 -95 58z"/>
<path d="M20 1879 c0 -34 26 -139 36 -149 5 -4 30 -10 56 -13 l48 -5 -7 42
c-3 22 -11 59 -17 81 -10 34 -17 41 -46 46 -19 3 -43 10 -52 14 -14 6 -18 2
-18 -16z"/>
<path d="M3005 1718 c-9 -35 -19 -70 -22 -78 -2 -9 14 -30 41 -52 l44 -37 21
68 c12 38 21 76 21 84 0 13 -69 77 -82 77 -3 0 -13 -28 -23 -62z"/>
<path d="M60 1677 c0 -18 40 -127 52 -144 5 -6 32 -12 59 -11 48 0 49 1 43 26
-4 15 -16 51 -26 80 -18 48 -22 52 -51 52 -18 0 -42 3 -54 6 -17 5 -23 2 -23
-9z"/>
<path d="M2937 1518 c-33 -78 -34 -91 -2 -112 14 -9 25 -23 25 -31 0 -40 24
-18 55 51 19 42 35 78 35 81 0 7 -69 73 -77 73 -5 0 -21 -28 -36 -62z"/>
<path d="M130 1476 c1 -6 15 -40 33 -76 l33 -65 54 3 c30 2 56 5 58 6 1 2 -13
35 -33 74 l-35 71 -55 0 c-35 -1 -55 -5 -55 -13z"/>
<path d="M2845 1339 c-39 -66 -42 -81 -21 -98 8 -6 19 -25 26 -41 7 -16 16
-28 20 -25 13 8 80 126 80 141 0 16 -50 84 -62 84 -4 0 -23 -27 -43 -61z"/>
<path d="M258 1303 c-21 -2 -38 -7 -38 -10 0 -3 19 -34 42 -70 l42 -65 50 6
c27 3 53 9 57 13 5 5 -11 36 -34 71 -30 44 -48 61 -62 60 -11 -1 -37 -3 -57
-5z"/>
<path d="M1563 1273 c-29 -6 -63 -49 -63 -80 0 -29 13 -56 54 -106 23 -30 30
-48 30 -79 l-1 -39 76 6 c42 4 79 10 83 14 11 10 38 148 38 195 0 29 -7 52
-21 70 -19 24 -25 26 -97 25 -42 -1 -87 -4 -99 -6z"/>
<path d="M2733 1176 c-24 -29 -43 -59 -43 -66 0 -8 10 -34 21 -58 l22 -44 31
34 c17 19 42 46 55 61 l25 27 -25 50 c-13 27 -28 50 -34 49 -5 0 -29 -24 -52
-53z"/>
<path d="M385 1132 c-22 -8 -42 -17 -44 -18 -5 -4 87 -107 104 -116 12 -7 105
27 105 38 0 11 -104 114 -114 113 -6 -1 -29 -8 -51 -17z"/>
<path d="M2602 1031 c-38 -34 -52 -53 -52 -73 0 -15 5 -30 10 -33 6 -3 10 -17
10 -30 0 -41 15 -36 75 25 l58 59 -17 45 c-10 25 -21 48 -24 50 -4 2 -31 -17
-60 -43z"/>
<path d="M545 990 c-16 -11 -38 -20 -47 -20 -10 0 -18 -4 -18 -9 0 -12 115
-111 129 -111 6 0 30 12 52 27 l42 27 -59 53 c-33 29 -61 53 -64 53 -3 0 -18
-9 -35 -20z"/>
<path d="M2446 899 l-57 -41 7 -56 c3 -32 8 -59 10 -61 1 -2 31 17 66 41 40
28 64 52 66 66 4 26 -16 92 -27 92 -4 0 -33 -18 -65 -41z"/>
<path d="M683 852 c-23 -15 -42 -30 -43 -33 0 -6 76 -57 118 -78 14 -8 28 -8
40 -2 22 12 67 60 61 65 -8 9 -123 76 -128 76 -3 0 -25 -13 -48 -28z"/>
<path d="M2285 796 l-60 -33 -3 -61 c-2 -34 -1 -62 2 -62 11 0 136 72 142 81
7 12 -6 109 -14 109 -4 0 -34 -15 -67 -34z"/>
<path d="M853 740 l-41 -39 65 -30 c36 -17 73 -31 82 -31 14 0 81 62 81 75 0
4 -101 51 -125 58 -14 5 -31 -5 -62 -33z"/>
<path d="M1776 740 c-47 -14 -65 -37 -56 -69 20 -71 43 -87 75 -51 11 12 31
20 50 20 18 0 60 13 94 28 58 26 61 29 44 44 -10 8 -28 21 -40 27 -25 13 -125
13 -167 1z"/>
<path d="M1254 711 c-66 -32 -124 -82 -124 -109 0 -23 36 -81 55 -88 9 -4 34
16 68 53 48 51 56 64 61 112 4 30 5 55 3 57 -2 2 -30 -9 -63 -25z"/>
<path d="M1403 733 c-14 -3 -27 -18 -37 -44 -22 -55 -21 -59 20 -59 19 0 55
-5 80 -11 38 -10 51 -9 85 6 56 26 50 52 -21 87 -53 26 -80 30 -127 21z"/>
<path d="M2105 713 c-33 -13 -64 -30 -70 -36 -5 -7 -20 -13 -32 -15 -12 -2
-46 -11 -75 -20 l-53 -17 -6 -55 c-3 -30 -5 -56 -3 -58 4 -5 117 30 132 41 6
5 12 27 12 48 0 21 5 41 12 45 8 5 9 -5 4 -36 -7 -42 -6 -42 19 -36 56 14 133
47 137 59 6 17 -3 107 -11 106 -3 0 -33 -12 -66 -26z"/>
<path d="M1639 650 c-38 -33 -81 -56 -120 -64 -28 -6 -39 -28 -39 -78 0 -27 2
-28 54 -28 61 0 147 40 179 82 18 24 18 26 -4 71 -13 26 -26 47 -30 47 -3 0
-22 -13 -40 -30z"/>
<path d="M1277 566 l-27 -35 84 -27 c46 -14 92 -24 102 -22 12 2 22 19 30 50
14 55 16 54 -91 63 l-70 7 -28 -36z"/>
<path d="M1096 528 c-14 -55 4 -176 31 -203 20 -21 121 -21 130 0 3 9 -2 24
-11 34 -9 10 -23 38 -32 63 -10 30 -24 49 -40 57 -14 6 -33 24 -42 41 -20 36
-28 37 -36 8z"/>
<path d="M2027 526 c-43 -16 -69 -35 -62 -46 3 -5 1 -19 -4 -32 -7 -19 -3 -26
25 -46 18 -12 45 -27 59 -32 24 -9 27 -7 41 25 22 53 16 146 -10 145 -6 -1
-28 -7 -49 -14z"/>
<path d="M1278 453 c-33 -5 -34 -10 -11 -58 15 -32 21 -35 57 -35 23 0 50 -3
61 -5 14 -4 32 6 59 32 l39 37 -34 14 c-36 15 -126 23 -171 15z"/>
<path d="M1697 436 c-21 -8 -42 -17 -45 -21 -9 -9 26 -34 58 -42 14 -3 36 -14
49 -25 31 -24 76 -23 108 2 14 11 40 22 59 26 46 8 43 21 -11 45 -60 27 -168
34 -218 15z"/>
<path d="M1488 382 c-21 -15 -38 -32 -38 -38 0 -6 28 -22 62 -34 35 -13 79
-33 99 -46 36 -22 37 -22 67 -4 75 46 62 80 -47 124 -80 32 -97 32 -143 -2z"/>
<path d="M1009 321 c-56 -58 -61 -73 -21 -65 21 4 36 -1 60 -21 33 -27 41 -27
78 7 l22 19 -35 52 c-19 29 -39 54 -45 56 -5 2 -32 -20 -59 -48z"/>
<path d="M1896 341 c-17 -19 -15 -22 43 -81 l61 -62 34 22 c24 14 43 19 60 14
42 -10 32 15 -30 73 -51 49 -60 53 -103 53 -34 0 -53 -5 -65 -19z"/>
<path d="M1274 295 c-10 -8 -33 -15 -51 -15 -46 0 -48 -15 -8 -46 48 -36 122
-45 147 -17 10 11 20 33 24 50 6 29 4 30 -33 36 -53 9 -57 9 -79 -8z"/>
<path d="M1430 288 c0 -13 -9 -40 -20 -61 -25 -47 -25 -47 9 -47 50 0 161 56
161 81 0 13 -58 38 -105 45 -43 6 -45 5 -45 -18z"/>
<path d="M1728 269 c-21 -21 -38 -43 -38 -48 0 -13 81 -41 118 -41 31 0 112
34 112 46 0 3 -12 23 -27 45 -26 36 -31 39 -78 38 -45 -1 -54 -5 -87 -40z"/>
<path d="M933 223 c-7 -2 -13 -14 -13 -24 0 -11 -4 -18 -9 -14 -19 11 -23 -17
-5 -36 20 -22 10 -26 -12 -4 -19 19 -29 19 -48 -1 -22 -22 -21 -25 30 -74 44
-43 46 -44 60 -26 17 24 18 48 2 65 -11 11 -9 11 9 0 31 -18 41 -4 16 24 -37
40 -37 51 0 23 29 -22 39 -25 56 -17 32 18 37 52 11 73 -21 17 -70 23 -97 11z"/>
</g>
</svg>
